STARTFONT 2.1
COMMENT Modified by Serge Winitzki. 1999. Based on standard 8x16 fixed font.
COMMENT May be distributed and modified without restrictions.
FONT -Misc-Fixed-Medium-R-Normal--16-160-75-75-C-80-KOI8-C
SIZE 16 75 75
FONTBOUNDINGBOX 8 16 0 -2
STARTPROPERTIES 21
FONT_ASCENT 14
FONT_DESCENT 2
DEFAULT_CHAR 0
_XMBDFED_INFO "Edited with xmbdfed 3.8."
POINT_SIZE 160
RESOLUTION_X 75
RESOLUTION_Y 75
SPACING "C"
FOUNDRY "Misc"
FAMILY_NAME "Fixed"
WEIGHT_NAME "Medium"
SLANT "R"
SETWIDTH_NAME "Normal"
ADD_STYLE_NAME ""
PIXEL_SIZE 16
AVERAGE_WIDTH 80
CHARSET_REGISTRY "KOI8"
CHARSET_ENCODING "C"
_XFREE86_GLYPH_RANGES "0_255"
X_HEIGHT 8
CAP_HEIGHT 10
ENDPROPERTIES
CHARS 256
STARTCHAR defaultchar
ENCODING 0
SWIDTH 480 0
DWIDTH 8 0
BBX 8 11 0 0
BITMAP
63
41
00
00
00
00
00
00
00
41
63
ENDCHAR
STARTCHAR uni25C6
ENCODING 1
SWIDTH 480 0
DWIDTH 8 0
BBX 8 7 0 2
BITMAP
08
1C
3E
7F
3E
1C
08
ENDCHAR
STARTCHAR shade
ENCODING 2
SWIDTH 480 0
DWIDTH 8 0
BBX 8 16 0 -2
BITMAP
AA
55
AA
55
AA
55
AA
55
AA
55
AA
55
AA
55
AA
55
ENDCHAR
STARTCHAR multi
ENCODING 3
SWIDTH 480 0
DWIDTH 8 0
BBX 8 6 0 2
BITMAP
42
24
18
18
24
42
ENDCHAR
STARTCHAR divide
ENCODING 4
SWIDTH 480 0
DWIDTH 8 0
BBX 8 7 0 1
BITMAP
08
08
00
7F
00
08
08
ENDCHAR
STARTCHAR promille
ENCODING 5
SWIDTH 480 0
DWIDTH 8 0
BBX 8 10 0 0
BITMAP
31
4A
4A
34
08
18
3E
2D
6D
5A
ENDCHAR
STARTCHAR approx
ENCODING 6
SWIDTH 480 0
DWIDTH 8 0
BBX 8 6 0 2
BITMAP
32
4C
00
00
32
4C
ENDCHAR
STARTCHAR degree
ENCODING 7
SWIDTH 480 0
DWIDTH 8 0
BBX 8 10 0 -2
BITMAP
42
42
42
42
42
42
46
7A
40
40
ENDCHAR
STARTCHAR plusminus
ENCODING 8
SWIDTH 480 0
DWIDTH 8 0
BBX 8 9 0 1
BITMAP
08
08
08
7F
08
08
08
00
7F
ENDCHAR
STARTCHAR pilcrow
ENCODING 9
SWIDTH 480 0
DWIDTH 8 0
BBX 8 10 0 0
BITMAP
3E
7A
7A
7A
3A
0A
0A
0A
0A
0A
ENDCHAR
STARTCHAR ddagger
ENCODING 10
SWIDTH 480 0
DWIDTH 8 0
BBX 8 13 0 -1
BITMAP
08
1C
08
2A
7F
2A
08
2A
7F
2A
08
1C
08
ENDCHAR
STARTCHAR SF040000
ENCODING 11
SWIDTH 480 0
DWIDTH 8 0
BBX 8 8 0 6
BITMAP
08
08
08
08
08
08
08
F8
ENDCHAR
STARTCHAR SF030000
ENCODING 12
SWIDTH 480 0
DWIDTH 8 0
BBX 8 9 0 -2
BITMAP
F8
08
08
08
08
08
08
08
08
ENDCHAR
STARTCHAR SF010000
ENCODING 13
SWIDTH 480 0
DWIDTH 8 0
BBX 8 9 0 -2
BITMAP
0F
08
08
08
08
08
08
08
08
ENDCHAR
STARTCHAR SF020000
ENCODING 14
SWIDTH 480 0
DWIDTH 8 0
BBX 8 8 0 6
BITMAP
08
08
08
08
08
08
08
0F
ENDCHAR
STARTCHAR SF050000
ENCODING 15
SWIDTH 480 0
DWIDTH 8 0
BBX 8 16 0 -2
BITMAP
08
08
08
08
08
08
08
FF
08
08
08
08
08
08
08
08
ENDCHAR
STARTCHAR char16
ENCODING 16
SWIDTH 480 0
DWIDTH 8 0
BBX 8 1 0 11
BITMAP
FF
ENDCHAR
STARTCHAR char17
ENCODING 17
SWIDTH 480 0
DWIDTH 8 0
BBX 8 1 0 8
BITMAP
FF
ENDCHAR
STARTCHAR char18
ENCODING 18
SWIDTH 480 0
DWIDTH 8 0
BBX 8 1 0 6
BITMAP
FF
ENDCHAR
STARTCHAR char19
ENCODING 19
SWIDTH 480 0
DWIDTH 8 0
BBX 8 1 0 3
BITMAP
FF
ENDCHAR
STARTCHAR char20
ENCODING 20
SWIDTH 480 0
DWIDTH 8 0
BBX 8 1 0 0
BITMAP
FF
ENDCHAR
STARTCHAR SF080000
ENCODING 21
SWIDTH 480 0
DWIDTH 8 0
BBX 8 16 0 -2
BITMAP
08
08
08
08
08
08
08
0F
08
08
08
08
08
08
08
08
ENDCHAR
STARTCHAR SF090000
ENCODING 22
SWIDTH 480 0
DWIDTH 8 0
BBX 8 16 0 -2
BITMAP
08
08
08
08
08
08
08
F8
08
08
08
08
08
08
08
08
ENDCHAR
STARTCHAR SF070000
ENCODING 23
SWIDTH 480 0
DWIDTH 8 0
BBX 8 8 0 6
BITMAP
08
08
08
08
08
08
08
FF
ENDCHAR
STARTCHAR SF060000
ENCODING 24
SWIDTH 480 0
DWIDTH 8 0
BBX 8 9 0 -2
BITMAP
FF
08
08
08
08
08
08
08
08
ENDCHAR
STARTCHAR SF110000
ENCODING 25
SWIDTH 480 0
DWIDTH 8 0
BBX 8 16 0 -2
BITMAP
08
08
08
08
08
08
08
08
08
08
08
08
08
08
08
08
ENDCHAR
STARTCHAR lessequal
ENCODING 26
SWIDTH 480 0
DWIDTH 8 0
BBX 8 7 0 1
BITMAP
06
18
60
18
06
00
7E
ENDCHAR
STARTCHAR greaterequal
ENCODING 27
SWIDTH 480 0
DWIDTH 8 0
BBX 8 7 0 1
BITMAP
60
18
06
18
60
00
7E
ENDCHAR
STARTCHAR pi
ENCODING 28
SWIDTH 480 0
DWIDTH 8 0
BBX 8 8 0 0
BITMAP
7E
24
24
24
24
24
24
24
ENDCHAR
STARTCHAR notequal
ENCODING 29
SWIDTH 480 0
DWIDTH 8 0
BBX 8 8 0 0
BITMAP
08
08
7E
08
08
7E
08
08
ENDCHAR
STARTCHAR currency
ENCODING 30
SWIDTH 480 0
DWIDTH 8 0
BBX 8 8 0 1
BITMAP
42
24
3C
24
24
3C
24
42
ENDCHAR
STARTCHAR twosuperior
ENCODING 31
SWIDTH 480 0
DWIDTH 8 0
BBX 8 7 0 5
BITMAP
1C
22
02
1C
20
20
3E
ENDCHAR
STARTCHAR space
ENCODING 32
SWIDTH 480 0
DWIDTH 8 0
BBX 0 0 0 0
BITMAP
ENDCHAR
STARTCHAR exclam
ENCODING 33
SWIDTH 480 0
DWIDTH 8 0
BBX 8 10 0 0
BITMAP
08
08
08
08
08
08
08
00
08
08
ENDCHAR
STARTCHAR quotedbl
ENCODING 34
SWIDTH 480 0
DWIDTH 8 0
BBX 8 4 0 8
BITMAP
22
22
22
22
ENDCHAR
STARTCHAR numbersign
ENCODING 35
SWIDTH 480 0
DWIDTH 8 0
BBX 8 10 0 0
BITMAP
12
12
12
7E
24
24
7E
48
48
48
ENDCHAR
STARTCHAR dollar
ENCODING 36
SWIDTH 480 0
DWIDTH 8 0
BBX 8 10 0 0
BITMAP
08
3E
49
48
38
0E
09
49
3E
08
ENDCHAR
STARTCHAR percent
ENCODING 37
SWIDTH 480 0
DWIDTH 8 0
BBX 8 10 0 0
BITMAP
31
4A
4A
34
08
08
16
29
29
46
ENDCHAR
STARTCHAR ampersand
ENCODING 38
SWIDTH 480 0
DWIDTH 8 0
BBX 8 10 0 0
BITMAP
1C
22
22
22
1C
39
45
42
46
39
ENDCHAR
STARTCHAR quotesingle
ENCODING 39
SWIDTH 480 0
DWIDTH 8 0
BBX 8 4 0 8
BITMAP
08
08
08
08
ENDCHAR
STARTCHAR parenleft
ENCODING 40
SWIDTH 480 0
DWIDTH 8 0
BBX 8 12 0 -1
BITMAP
04
08
08
10
10
10
10
10
10
08
08
04
ENDCHAR
STARTCHAR parenright
ENCODING 41
SWIDTH 480 0
DWIDTH 8 0
BBX 8 12 0 -1
BITMAP
20
10
10
08
08
08
08
08
08
10
10
20
ENDCHAR
STARTCHAR asterisk
ENCODING 42
SWIDTH 480 0
DWIDTH 8 0
BBX 8 7 0 1
BITMAP
08
49
2A
1C
2A
49
08
ENDCHAR
STARTCHAR plus
ENCODING 43
SWIDTH 480 0
DWIDTH 8 0
BBX 8 7 0 1
BITMAP
08
08
08
7F
08
08
08
ENDCHAR
STARTCHAR comma
ENCODING 44
SWIDTH 480 0
DWIDTH 8 0
BBX 8 4 0 -2
BITMAP
18
08
08
10
ENDCHAR
STARTCHAR hyphen
ENCODING 45
SWIDTH 480 0
DWIDTH 8 0
BBX 8 1 0 4
BITMAP
7E
ENDCHAR
STARTCHAR period
ENCODING 46
SWIDTH 480 0
DWIDTH 8 0
BBX 8 2 0 0
BITMAP
18
18
ENDCHAR
STARTCHAR slash
ENCODING 47
SWIDTH 480 0
DWIDTH 8 0
BBX 8 10 0 0
BITMAP
02
02
04
08
08
10
10
20
40
40
ENDCHAR
STARTCHAR zero
ENCODING 48
SWIDTH 480 0
DWIDTH 8 0
BBX 8 10 0 0
BITMAP
18
24
42
42
42
42
42
42
24
18
ENDCHAR
STARTCHAR one
ENCODING 49
SWIDTH 480 0
DWIDTH 8 0
BBX 8 10 0 0
BITMAP
08
18
28
08
08
08
08
08
08
3E
ENDCHAR
STARTCHAR two
ENCODING 50
SWIDTH 480 0
DWIDTH 8 0
BBX 8 10 0 0
BITMAP
3C
42
42
02
0C
10
20
40
40
7E
ENDCHAR
STARTCHAR three
ENCODING 51
SWIDTH 480 0
DWIDTH 8 0
BBX 8 10 0 0
BITMAP
3C
42
42
02
1C
02
02
42
42
3C
ENDCHAR
STARTCHAR four
ENCODING 52
SWIDTH 480 0
DWIDTH 8 0
BBX 8 10 0 0
BITMAP
04
0C
14
24
44
44
7E
04
04
04
ENDCHAR
STARTCHAR five
ENCODING 53
SWIDTH 480 0
DWIDTH 8 0
BBX 8 10 0 0
BITMAP
7E
40
40
40
7C
02
02
02
42
3C
ENDCHAR
STARTCHAR six
ENCODING 54
SWIDTH 480 0
DWIDTH 8 0
BBX 8 10 0 0
BITMAP
1C
20
40
40
7C
42
42
42
42
3C
ENDCHAR
STARTCHAR seven
ENCODING 55
SWIDTH 480 0
DWIDTH 8 0
BBX 8 10 0 0
BITMAP
7E
02
02
04
04
04
08
08
08
08
ENDCHAR
STARTCHAR eight
ENCODING 56
SWIDTH 480 0
DWIDTH 8 0
BBX 8 10 0 0
BITMAP
3C
42
42
42
3C
42
42
42
42
3C
ENDCHAR
STARTCHAR nine
ENCODING 57
SWIDTH 480 0
DWIDTH 8 0
BBX 8 10 0 0
BITMAP
3C
42
42
42
3E
02
02
02
04
38
ENDCHAR
STARTCHAR colon
ENCODING 58
SWIDTH 480 0
DWIDTH 8 0
BBX 8 7 0 1
BITMAP
18
18
00
00
00
18
18
ENDCHAR
STARTCHAR semicolon
ENCODING 59
SWIDTH 480 0
DWIDTH 8 0
BBX 8 9 0 -1
BITMAP
18
18
00
00
00
18
08
08
10
ENDCHAR
STARTCHAR less
ENCODING 60
SWIDTH 480 0
DWIDTH 8 0
BBX 8 9 0 0
BITMAP
02
04
08
10
20
10
08
04
02
ENDCHAR
STARTCHAR equal
ENCODING 61
SWIDTH 480 0
DWIDTH 8 0
BBX 8 5 0 2
BITMAP
7E
00
00
00
7E
ENDCHAR
STARTCHAR greater
ENCODING 62
SWIDTH 480 0
DWIDTH 8 0
BBX 8 9 0 0
BITMAP
40
20
10
08
04
08
10
20
40
ENDCHAR
STARTCHAR question
ENCODING 63
SWIDTH 480 0
DWIDTH 8 0
BBX 8 10 0 0
BITMAP
3C
42
42
02
04
08
08
00
08
08
ENDCHAR
STARTCHAR at
ENCODING 64
SWIDTH 480 0
DWIDTH 8 0
BBX 8 10 0 0
BITMAP
1C
22
4A
56
52
52
52
4E
20
1E
ENDCHAR
STARTCHAR A
ENCODING 65
SWIDTH 480 0
DWIDTH 8 0
BBX 8 10 0 0
BITMAP
18
24
24
42
42
7E
42
42
42
42
ENDCHAR
STARTCHAR B
ENCODING 66
SWIDTH 480 0
DWIDTH 8 0
BBX 8 10 0 0
BITMAP
7C
42
42
42
7C
42
42
42
42
7C
ENDCHAR
STARTCHAR C
ENCODING 67
SWIDTH 480 0
DWIDTH 8 0
BBX 8 10 0 0
BITMAP
3C
42
42
40
40
40
40
42
42
3C
ENDCHAR
STARTCHAR D
ENCODING 68
SWIDTH 480 0
DWIDTH 8 0
BBX 8 10 0 0
BITMAP
78
44
42
42
42
42
42
42
44
78
ENDCHAR
STARTCHAR E
ENCODING 69
SWIDTH 480 0
DWIDTH 8 0
BBX 8 10 0 0
BITMAP
7E
40
40
40
7C
40
40
40
40
7E
ENDCHAR
STARTCHAR F
ENCODING 70
SWIDTH 480 0
DWIDTH 8 0
BBX 8 10 0 0
BITMAP
7E
40
40
40
7C
40
40
40
40
40
ENDCHAR
STARTCHAR G
ENCODING 71
SWIDTH 480 0
DWIDTH 8 0
BBX 8 10 0 0
BITMAP
3C
42
42
40
40
4E
42
42
46
3A
ENDCHAR
STARTCHAR H
ENCODING 72
SWIDTH 480 0
DWIDTH 8 0
BBX 8 10 0 0
BITMAP
42
42
42
42
7E
42
42
42
42
42
ENDCHAR
STARTCHAR I
ENCODING 73
SWIDTH 480 0
DWIDTH 8 0
BBX 8 10 0 0
BITMAP
3E
08
08
08
08
08
08
08
08
3E
ENDCHAR
STARTCHAR J
ENCODING 74
SWIDTH 480 0
DWIDTH 8 0
BBX 8 10 0 0
BITMAP
1F
04
04
04
04
04
04
44
44
38
ENDCHAR
STARTCHAR K
ENCODING 75
SWIDTH 480 0
DWIDTH 8 0
BBX 8 10 0 0
BITMAP
42
44
48
50
60
60
50
48
44
42
ENDCHAR
STARTCHAR L
ENCODING 76
SWIDTH 480 0
DWIDTH 8 0
BBX 8 10 0 0
BITMAP
40
40
40
40
40
40
40
40
40
7E
ENDCHAR
STARTCHAR M
ENCODING 77
SWIDTH 480 0
DWIDTH 8 0
BBX 8 10 0 0
BITMAP
42
42
66
66
5A
5A
42
42
42
42
ENDCHAR
STARTCHAR N
ENCODING 78
SWIDTH 480 0
DWIDTH 8 0
BBX 8 10 0 0
BITMAP
42
62
62
52
52
4A
4A
46
46
42
ENDCHAR
STARTCHAR O
ENCODING 79
SWIDTH 480 0
DWIDTH 8 0
BBX 8 10 0 0
BITMAP
3C
42
42
42
42
42
42
42
42
3C
ENDCHAR
STARTCHAR P
ENCODING 80
SWIDTH 480 0
DWIDTH 8 0
BBX 8 10 0 0
BITMAP
7C
42
42
42
7C
40
40
40
40
40
ENDCHAR
STARTCHAR Q
ENCODING 81
SWIDTH 480 0
DWIDTH 8 0
BBX 8 11 0 -1
BITMAP
3C
42
42
42
42
42
42
5A
66
3C
03
ENDCHAR
STARTCHAR R
ENCODING 82
SWIDTH 480 0
DWIDTH 8 0
BBX 8 10 0 0
BITMAP
7C
42
42
42
7C
48
44
44
42
42
ENDCHAR
STARTCHAR S
ENCODING 83
SWIDTH 480 0
DWIDTH 8 0
BBX 8 10 0 0
BITMAP
3C
42
42
40
30
0C
02
42
42
3C
ENDCHAR
STARTCHAR T
ENCODING 84
SWIDTH 480 0
DWIDTH 8 0
BBX 8 10 0 0
BITMAP
7F
08
08
08
08
08
08
08
08
08
ENDCHAR
STARTCHAR U
ENCODING 85
SWIDTH 480 0
DWIDTH 8 0
BBX 8 10 0 0
BITMAP
42
42
42
42
42
42
42
42
42
3C
ENDCHAR
STARTCHAR V
ENCODING 86
SWIDTH 480 0
DWIDTH 8 0
BBX 8 10 0 0
BITMAP
41
41
41
22
22
22
14
14
08
08
ENDCHAR
STARTCHAR W
ENCODING 87
SWIDTH 480 0
DWIDTH 8 0
BBX 8 10 0 0
BITMAP
42
42
42
42
5A
5A
66
66
42
42
ENDCHAR
STARTCHAR X
ENCODING 88
SWIDTH 480 0
DWIDTH 8 0
BBX 8 10 0 0
BITMAP
42
42
24
24
18
18
24
24
42
42
ENDCHAR
STARTCHAR Y
ENCODING 89
SWIDTH 480 0
DWIDTH 8 0
BBX 8 10 0 0
BITMAP
41
41
22
22
14
08
08
08
08
08
ENDCHAR
STARTCHAR Z
ENCODING 90
SWIDTH 480 0
DWIDTH 8 0
BBX 8 10 0 0
BITMAP
7E
02
02
04
08
10
20
40
40
7E
ENDCHAR
STARTCHAR bracketleft
ENCODING 91
SWIDTH 480 0
DWIDTH 8 0
BBX 8 12 0 -1
BITMAP
0E
08
08
08
08
08
08
08
08
08
08
0E
ENDCHAR
STARTCHAR backslash
ENCODING 92
SWIDTH 480 0
DWIDTH 8 0
BBX 8 10 0 0
BITMAP
40
40
20
10
10
08
08
04
02
02
ENDCHAR
STARTCHAR bracketright
ENCODING 93
SWIDTH 480 0
DWIDTH 8 0
BBX 8 12 0 -1
BITMAP
70
10
10
10
10
10
10
10
10
10
10
70
ENDCHAR
STARTCHAR asciicircum
ENCODING 94
SWIDTH 480 0
DWIDTH 8 0
BBX 8 3 0 9
BITMAP
18
24
42
ENDCHAR
STARTCHAR underscore
ENCODING 95
SWIDTH 480 0
DWIDTH 8 0
BBX 8 1 0 -1
BITMAP
7F
ENDCHAR
STARTCHAR grave
ENCODING 96
SWIDTH 480 0
DWIDTH 8 0
BBX 8 3 0 10
BITMAP
20
10
08
ENDCHAR
STARTCHAR a
ENCODING 97
SWIDTH 480 0
DWIDTH 8 0
BBX 8 8 0 0
BITMAP
3C
42
02
3E
42
42
46
3A
ENDCHAR
STARTCHAR b
ENCODING 98
SWIDTH 480 0
DWIDTH 8 0
BBX 8 11 0 0
BITMAP
40
40
40
5C
62
42
42
42
42
62
5C
ENDCHAR
STARTCHAR c
ENCODING 99
SWIDTH 480 0
DWIDTH 8 0
BBX 8 8 0 0
BITMAP
3C
42
40
40
40
40
42
3C
ENDCHAR
STARTCHAR d
ENCODING 100
SWIDTH 480 0
DWIDTH 8 0
BBX 8 11 0 0
BITMAP
02
02
02
3A
46
42
42
42
42
46
3A
ENDCHAR
STARTCHAR e
ENCODING 101
SWIDTH 480 0
DWIDTH 8 0
BBX 8 8 0 0
BITMAP
3C
42
42
7E
40
40
42
3C
ENDCHAR
STARTCHAR f
ENCODING 102
SWIDTH 480 0
DWIDTH 8 0
BBX 8 11 0 0
BITMAP
0C
10
10
10
7C
10
10
10
10
10
10
ENDCHAR
STARTCHAR g
ENCODING 103
SWIDTH 480 0
DWIDTH 8 0
BBX 8 11 0 -2
BITMAP
02
3A
44
44
44
38
20
3C
42
42
3C
ENDCHAR
STARTCHAR h
ENCODING 104
SWIDTH 480 0
DWIDTH 8 0
BBX 8 11 0 0
BITMAP
40
40
40
5C
62
42
42
42
42
42
42
ENDCHAR
STARTCHAR i
ENCODING 105
SWIDTH 480 0
DWIDTH 8 0
BBX 8 11 0 0
BITMAP
08
08
00
18
08
08
08
08
08
08
3E
ENDCHAR
STARTCHAR j
ENCODING 106
SWIDTH 480 0
DWIDTH 8 0
BBX 8 13 0 -2
BITMAP
04
04
00
0C
04
04
04
04
04
04
04
48
30
ENDCHAR
STARTCHAR k
ENCODING 107
SWIDTH 480 0
DWIDTH 8 0
BBX 8 10 0 0
BITMAP
40
40
44
48
50
60
50
48
44
42
ENDCHAR
STARTCHAR l
ENCODING 108
SWIDTH 480 0
DWIDTH 8 0
BBX 8 10 0 0
BITMAP
18
08
08
08
08
08
08
08
08
3E
ENDCHAR
STARTCHAR m
ENCODING 109
SWIDTH 480 0
DWIDTH 8 0
BBX 8 8 0 0
BITMAP
76
49
49
49
49
49
49
49
ENDCHAR
STARTCHAR n
ENCODING 110
SWIDTH 480 0
DWIDTH 8 0
BBX 8 8 0 0
BITMAP
5C
62
42
42
42
42
42
42
ENDCHAR
STARTCHAR o
ENCODING 111
SWIDTH 480 0
DWIDTH 8 0
BBX 8 8 0 0
BITMAP
3C
42
42
42
42
42
42
3C
ENDCHAR
STARTCHAR p
ENCODING 112
SWIDTH 480 0
DWIDTH 8 0
BBX 8 10 0 -2
BITMAP
5C
62
42
42
42
42
62
5C
40
40
ENDCHAR
STARTCHAR q
ENCODING 113
SWIDTH 480 0
DWIDTH 8 0
BBX 8 10 0 -2
BITMAP
3A
46
42
42
42
42
46
3A
02
02
ENDCHAR
STARTCHAR r
ENCODING 114
SWIDTH 480 0
DWIDTH 8 0
BBX 8 8 0 0
BITMAP
5C
62
42
40
40
40
40
40
ENDCHAR
STARTCHAR s
ENCODING 115
SWIDTH 480 0
DWIDTH 8 0
BBX 8 8 0 0
BITMAP
3C
42
40
30
0C
02
42
3C
ENDCHAR
STARTCHAR t
ENCODING 116
SWIDTH 480 0
DWIDTH 8 0
BBX 8 10 0 0
BITMAP
10
10
7C
10
10
10
10
10
10
0C
ENDCHAR
STARTCHAR u
ENCODING 117
SWIDTH 480 0
DWIDTH 8 0
BBX 8 8 0 0
BITMAP
42
42
42
42
42
42
46
3A
ENDCHAR
STARTCHAR v
ENCODING 118
SWIDTH 480 0
DWIDTH 8 0
BBX 8 8 0 0
BITMAP
42
42
42
24
24
24
18
18
ENDCHAR
STARTCHAR w
ENCODING 119
SWIDTH 480 0
DWIDTH 8 0
BBX 8 8 0 0
BITMAP
41
49
49
49
49
49
49
36
ENDCHAR
STARTCHAR x
ENCODING 120
SWIDTH 480 0
DWIDTH 8 0
BBX 8 8 0 0
BITMAP
42
42
24
18
18
24
42
42
ENDCHAR
STARTCHAR y
ENCODING 121
SWIDTH 480 0
DWIDTH 8 0
BBX 8 10 0 -2
BITMAP
42
42
42
42
42
26
1A
02
02
3C
ENDCHAR
STARTCHAR z
ENCODING 122
SWIDTH 480 0
DWIDTH 8 0
BBX 8 8 0 0
BITMAP
7E
02
04
08
10
20
40
7E
ENDCHAR
STARTCHAR braceleft
ENCODING 123
SWIDTH 480 0
DWIDTH 8 0
BBX 8 12 0 -1
BITMAP
0C
10
10
08
08
10
10
08
08
10
10
0C
ENDCHAR
STARTCHAR bar
ENCODING 124
SWIDTH 480 0
DWIDTH 8 0
BBX 8 13 0 -1
BITMAP
08
08
08
08
08
08
08
08
08
08
08
08
08
ENDCHAR
STARTCHAR braceright
ENCODING 125
SWIDTH 480 0
DWIDTH 8 0
BBX 8 12 0 -1
BITMAP
30
08
08
10
10
08
08
10
10
08
08
30
ENDCHAR
STARTCHAR asciitilde
ENCODING 126
SWIDTH 480 0
DWIDTH 8 0
BBX 8 3 0 8
BITMAP
31
49
46
ENDCHAR
STARTCHAR not
ENCODING 127
SWIDTH 480 0
DWIDTH 8 0
BBX 8 3 0 2
BITMAP
7E
02
02
ENDCHAR
STARTCHAR afii10051
ENCODING 128
SWIDTH 480 0
DWIDTH 8 0
BBX 8 10 0 0
BITMAP
7E
10
10
10
1E
11
11
11
11
16
ENDCHAR
STARTCHAR afii10052
ENCODING 129
SWIDTH 480 0
DWIDTH 8 0
BBX 8 14 0 0
BITMAP
0C
30
00
00
7E
40
40
40
40
40
40
40
40
40
ENDCHAR
STARTCHAR cedilla
ENCODING 130
SWIDTH 480 0
DWIDTH 8 0
BBX 8 4 0 -2
BITMAP
18
08
08
10
ENDCHAR
STARTCHAR afii10100
ENCODING 131
SWIDTH 480 0
DWIDTH 8 0
BBX 8 12 0 0
BITMAP
0C
30
00
00
7E
40
40
40
40
40
40
40
ENDCHAR
STARTCHAR quotedblbase
ENCODING 132
SWIDTH 480 0
DWIDTH 8 0
BBX 8 4 0 -2
BITMAP
66
22
22
44
ENDCHAR
STARTCHAR ellipsis
ENCODING 133
SWIDTH 480 0
DWIDTH 8 0
BBX 8 2 0 0
BITMAP
49
49
ENDCHAR
STARTCHAR dagger
ENCODING 134
SWIDTH 480 0
DWIDTH 8 0
BBX 8 12 0 0
BITMAP
08
1C
08
2A
7F
2A
08
1C
08
08
08
08
ENDCHAR
STARTCHAR section
ENCODING 135
SWIDTH 480 0
DWIDTH 8 0
BBX 8 10 0 0
BITMAP
3C
42
40
3C
42
42
3C
02
42
3C
ENDCHAR
STARTCHAR Euro
ENCODING 136
SWIDTH 480 0
DWIDTH 8 0
BBX 8 10 0 0
BITMAP
0C
12
20
7C
20
7C
20
20
12
0C
ENDCHAR
STARTCHAR dieresis
ENCODING 137
SWIDTH 480 0
DWIDTH 8 0
BBX 8 2 0 12
BITMAP
24
24
ENDCHAR
STARTCHAR afii10058
ENCODING 138
SWIDTH 480 0
DWIDTH 8 0
BBX 8 10 0 0
BITMAP
38
48
48
48
4E
49
49
49
49
8E
ENDCHAR
STARTCHAR guilsinglleft
ENCODING 139
SWIDTH 480 0
DWIDTH 8 0
BBX 8 10 0 0
BITMAP
04
04
08
08
10
10
08
08
04
04
ENDCHAR
STARTCHAR afii10059
ENCODING 140
SWIDTH 480 0
DWIDTH 8 0
BBX 8 10 0 0
BITMAP
48
48
48
48
7E
49
49
49
49
4E
ENDCHAR
STARTCHAR afii10061
ENCODING 141
SWIDTH 480 0
DWIDTH 8 0
BBX 8 14 0 0
BITMAP
0C
30
00
00
42
44
48
50
60
60
50
48
44
42
ENDCHAR
STARTCHAR afii10060
ENCODING 142
SWIDTH 480 0
DWIDTH 8 0
BBX 8 10 0 0
BITMAP
7E
10
10
10
1E
11
11
11
11
11
ENDCHAR
STARTCHAR afii10145
ENCODING 143
SWIDTH 480 0
DWIDTH 8 0
BBX 8 10 0 0
BITMAP
41
41
41
41
41
41
7F
08
08
08
ENDCHAR
STARTCHAR afii10099
ENCODING 144
SWIDTH 480 0
DWIDTH 8 0
BBX 8 11 0 -1
BITMAP
20
20
78
20
20
3C
22
22
22
22
0C
ENDCHAR
STARTCHAR quoteleft
ENCODING 145
SWIDTH 480 0
DWIDTH 8 0
BBX 8 4 0 8
BITMAP
08
10
10
18
ENDCHAR
STARTCHAR quoteright
ENCODING 146
SWIDTH 480 0
DWIDTH 8 0
BBX 8 4 0 8
BITMAP
18
08
08
10
ENDCHAR
STARTCHAR quotedblleft
ENCODING 147
SWIDTH 480 0
DWIDTH 8 0
BBX 8 4 0 8
BITMAP
22
44
44
66
ENDCHAR
STARTCHAR quotedblright
ENCODING 148
SWIDTH 480 0
DWIDTH 8 0
BBX 8 4 0 8
BITMAP
66
22
22
44
ENDCHAR
STARTCHAR bullet
ENCODING 149
SWIDTH 480 0
DWIDTH 8 0
BBX 8 5 0 2
BITMAP
38
7C
7C
7C
38
ENDCHAR
STARTCHAR endash
ENCODING 150
SWIDTH 480 0
DWIDTH 8 0
BBX 8 1 0 4
BITMAP
7E
ENDCHAR
STARTCHAR emdash
ENCODING 151
SWIDTH 480 0
DWIDTH 8 0
BBX 8 1 0 4
BITMAP
7F
ENDCHAR
STARTCHAR sterling
ENCODING 152
SWIDTH 480 0
DWIDTH 8 0
BBX 8 10 0 0
BITMAP
0E
10
10
10
7C
10
10
10
3E
61
ENDCHAR
STARTCHAR periodcentered
ENCODING 153
SWIDTH 480 0
DWIDTH 8 0
BBX 8 2 0 4
BITMAP
18
18
ENDCHAR
STARTCHAR afii10106
ENCODING 154
SWIDTH 480 0
DWIDTH 8 0
BBX 8 8 0 0
BITMAP
38
48
48
4E
49
49
49
8E
ENDCHAR
STARTCHAR guilsinglright
ENCODING 155
SWIDTH 480 0
DWIDTH 8 0
BBX 8 10 0 0
BITMAP
40
40
20
20
10
10
20
20
40
40
ENDCHAR
STARTCHAR afii10107
ENCODING 156
SWIDTH 480 0
DWIDTH 8 0
BBX 8 8 0 0
BITMAP
48
48
48
7E
49
49
49
4E
ENDCHAR
STARTCHAR afii10109
ENCODING 157
SWIDTH 480 0
DWIDTH 8 0
BBX 8 12 0 0
BITMAP
0C
30
00
00
42
44
48
70
70
48
44
42
ENDCHAR
STARTCHAR afii10108
ENCODING 158
SWIDTH 480 0
DWIDTH 8 0
BBX 8 10 0 0
BITMAP
20
20
78
20
20
2C
32
22
22
22
ENDCHAR
STARTCHAR afii10193
ENCODING 159
SWIDTH 480 0
DWIDTH 8 0
BBX 8 10 0 -2
BITMAP
22
22
22
22
22
22
3E
08
08
08
ENDCHAR
STARTCHAR space
ENCODING 160
SWIDTH 480 0
DWIDTH 8 0
BBX 0 0 0 0
BITMAP
ENDCHAR
STARTCHAR afii10196
ENCODING 161
SWIDTH 480 0
DWIDTH 8 0
BBX 8 8 0 0
BITMAP
46
48
48
28
28
28
10
10
ENDCHAR
STARTCHAR afii10194
ENCODING 162
SWIDTH 480 0
DWIDTH 8 0
BBX 8 10 0 0
BITMAP
20
20
78
20
20
3C
22
22
22
3C
ENDCHAR
STARTCHAR afii10071
ENCODING 163
SWIDTH 480 0
DWIDTH 8 0
BBX 8 12 0 0
BITMAP
24
24
00
00
3C
42
42
7E
40
40
42
3C
ENDCHAR
STARTCHAR afii10101
ENCODING 164
SWIDTH 480 0
DWIDTH 8 0
BBX 8 8 0 0
BITMAP
1C
22
40
7C
40
40
22
1C
ENDCHAR
STARTCHAR afii10102
ENCODING 165
SWIDTH 480 0
DWIDTH 8 0
BBX 8 8 0 0
BITMAP
3C
42
40
30
0C
02
42
3C
ENDCHAR
STARTCHAR afii10103
ENCODING 166
SWIDTH 480 0
DWIDTH 8 0
BBX 8 11 0 0
BITMAP
08
08
00
18
08
08
08
08
08
08
3E
ENDCHAR
STARTCHAR afii10104
ENCODING 167
SWIDTH 480 0
DWIDTH 8 0
BBX 8 11 0 0
BITMAP
24
24
00
18
08
08
08
08
08
08
3E
ENDCHAR
STARTCHAR afii10105
ENCODING 168
SWIDTH 480 0
DWIDTH 8 0
BBX 8 13 0 -2
BITMAP
04
04
00
0C
04
04
04
04
04
04
04
48
30
ENDCHAR
STARTCHAR registered
ENCODING 169
SWIDTH 480 0
DWIDTH 8 0
BBX 8 10 0 0
BITMAP
3C
42
B9
A5
A5
B9
A9
A5
42
3C
ENDCHAR
STARTCHAR trademark
ENCODING 170
SWIDTH 480 0
DWIDTH 8 0
BBX 8 5 0 5
BITMAP
E9
4F
49
49
49
ENDCHAR
STARTCHAR guillemotleft
ENCODING 171
SWIDTH 480 0
DWIDTH 8 0
BBX 8 9 0 0
BITMAP
12
12
24
24
48
24
24
12
12
ENDCHAR
STARTCHAR afii10195
ENCODING 172
SWIDTH 480 0
DWIDTH 8 0
BBX 8 8 0 0
BITMAP
3C
42
42
7E
42
42
42
3C
ENDCHAR
STARTCHAR afii10098
ENCODING 173
SWIDTH 480 0
DWIDTH 8 0
BBX 8 10 0 0
BITMAP
02
02
7E
40
40
40
40
40
40
40
ENDCHAR
STARTCHAR afii10110
ENCODING 174
SWIDTH 480 0
DWIDTH 8 0
BBX 8 12 0 -2
BITMAP
24
18
42
42
24
24
18
18
10
10
20
60
ENDCHAR
STARTCHAR acute
ENCODING 175
SWIDTH 480 0
DWIDTH 8 0
BBX 8 3 0 10
BITMAP
04
08
10
ENDCHAR
STARTCHAR degree
ENCODING 176
SWIDTH 480 0
DWIDTH 8 0
BBX 8 4 0 10
BITMAP
10
28
28
10
ENDCHAR
STARTCHAR afii10148
ENCODING 177
SWIDTH 480 0
DWIDTH 8 0
BBX 8 10 0 0
BITMAP
43
44
44
44
28
28
28
10
10
10
ENDCHAR
STARTCHAR afii10146
ENCODING 178
SWIDTH 480 0
DWIDTH 8 0
BBX 8 11 0 0
BITMAP
10
10
7C
10
10
1E
11
11
11
11
1E
ENDCHAR
STARTCHAR afii10023
ENCODING 179
SWIDTH 480 0
DWIDTH 8 0
BBX 8 14 0 0
BITMAP
24
24
00
00
7E
40
40
40
7C
40
40
40
40
7E
ENDCHAR
STARTCHAR afii10053
ENCODING 180
SWIDTH 480 0
DWIDTH 8 0
BBX 8 10 0 0
BITMAP
1C
22
40
40
7C
40
40
40
22
1C
ENDCHAR
STARTCHAR afii10054
ENCODING 181
SWIDTH 480 0
DWIDTH 8 0
BBX 8 10 0 0
BITMAP
3C
42
42
40
30
0C
02
42
42
3C
ENDCHAR
STARTCHAR afii10055
ENCODING 182
SWIDTH 480 0
DWIDTH 8 0
BBX 8 10 0 0
BITMAP
3E
08
08
08
08
08
08
08
08
3E
ENDCHAR
STARTCHAR afii10056
ENCODING 183
SWIDTH 480 0
DWIDTH 8 0
BBX 8 14 0 0
BITMAP
24
24
00
00
3E
08
08
08
08
08
08
08
08
3E
ENDCHAR
STARTCHAR afii10057
ENCODING 184
SWIDTH 480 0
DWIDTH 8 0
BBX 8 10 0 0
BITMAP
0E
04
04
04
04
04
04
44
44
38
ENDCHAR
STARTCHAR afii61352
ENCODING 185
SWIDTH 480 0
DWIDTH 8 0
BBX 8 10 0 0
BITMAP
92
95
95
D2
D0
B7
B0
90
90
90
ENDCHAR
STARTCHAR cent
ENCODING 186
SWIDTH 480 0
DWIDTH 8 0
BBX 8 10 0 -1
BITMAP
10
38
54
50
50
50
50
54
38
10
ENDCHAR
STARTCHAR guillemotright
ENCODING 187
SWIDTH 480 0
DWIDTH 8 0
BBX 8 9 0 0
BITMAP
48
48
24
24
12
24
24
48
48
ENDCHAR
STARTCHAR afii10147
ENCODING 188
SWIDTH 480 0
DWIDTH 8 0
BBX 8 10 0 0
BITMAP
3C
42
42
42
7E
42
42
42
42
3C
ENDCHAR
STARTCHAR afii10050
ENCODING 189
SWIDTH 480 0
DWIDTH 8 0
BBX 8 12 0 0
BITMAP
02
02
7E
40
40
40
40
40
40
40
40
40
ENDCHAR
STARTCHAR afii10062
ENCODING 190
SWIDTH 480 0
DWIDTH 8 0
BBX 8 13 0 0
BITMAP
22
1C
00
41
41
22
22
14
14
08
08
10
30
ENDCHAR
STARTCHAR copyright
ENCODING 191
SWIDTH 480 0
DWIDTH 8 0
BBX 8 10 0 0
BITMAP
3C
42
99
A5
A1
A1
A5
99
42
3C
ENDCHAR
STARTCHAR afii10096
ENCODING 192
SWIDTH 480 0
DWIDTH 8 0
BBX 8 8 0 0
BITMAP
4C
52
52
72
52
52
52
4C
ENDCHAR
STARTCHAR afii10065
ENCODING 193
SWIDTH 480 0
DWIDTH 8 0
BBX 8 8 0 0
BITMAP
3C
42
02
3E
42
42
46
3A
ENDCHAR
STARTCHAR afii10066
ENCODING 194
SWIDTH 480 0
DWIDTH 8 0
BBX 8 12 0 0
BITMAP
02
3C
40
40
5C
62
42
42
42
42
42
3C
ENDCHAR
STARTCHAR afii10088
ENCODING 195
SWIDTH 480 0
DWIDTH 8 0
BBX 8 10 0 -2
BITMAP
42
42
42
42
42
42
42
7F
01
02
ENDCHAR
STARTCHAR afii10069
ENCODING 196
SWIDTH 480 0
DWIDTH 8 0
BBX 8 10 0 -2
BITMAP
0E
12
22
22
22
22
22
7F
41
41
ENDCHAR
STARTCHAR afii10070
ENCODING 197
SWIDTH 480 0
DWIDTH 8 0
BBX 8 8 0 0
BITMAP
3C
42
42
7E
40
40
42
3C
ENDCHAR
STARTCHAR afii10086
ENCODING 198
SWIDTH 480 0
DWIDTH 8 0
BBX 8 12 0 -2
BITMAP
08
08
3E
49
49
49
49
49
49
3E
08
08
ENDCHAR
STARTCHAR afii10068
ENCODING 199
SWIDTH 480 0
DWIDTH 8 0
BBX 8 8 0 0
BITMAP
7E
40
40
40
40
40
40
40
ENDCHAR
STARTCHAR afii10087
ENCODING 200
SWIDTH 480 0
DWIDTH 8 0
BBX 8 8 0 0
BITMAP
42
42
24
18
18
24
42
42
ENDCHAR
STARTCHAR afii10074
ENCODING 201
SWIDTH 480 0
DWIDTH 8 0
BBX 8 8 0 0
BITMAP
46
46
4A
4A
52
52
62
62
ENDCHAR
STARTCHAR afii10075
ENCODING 202
SWIDTH 480 0
DWIDTH 8 0
BBX 8 11 0 0
BITMAP
24
18
00
46
46
4A
4A
52
52
62
62
ENDCHAR
STARTCHAR afii10076
ENCODING 203
SWIDTH 480 0
DWIDTH 8 0
BBX 8 8 0 0
BITMAP
42
44
48
70
70
48
44
42
ENDCHAR
STARTCHAR afii10077
ENCODING 204
SWIDTH 480 0
DWIDTH 8 0
BBX 8 8 0 0
BITMAP
1E
22
22
22
22
22
22
42
ENDCHAR
STARTCHAR afii10078
ENCODING 205
SWIDTH 480 0
DWIDTH 8 0
BBX 8 8 0 0
BITMAP
42
66
66
5A
5A
42
42
42
ENDCHAR
STARTCHAR afii10079
ENCODING 206
SWIDTH 480 0
DWIDTH 8 0
BBX 8 8 0 0
BITMAP
42
42
42
7E
42
42
42
42
ENDCHAR
STARTCHAR afii10080
ENCODING 207
SWIDTH 480 0
DWIDTH 8 0
BBX 8 8 0 0
BITMAP
3C
42
42
42
42
42
42
3C
ENDCHAR
STARTCHAR afii10081
ENCODING 208
SWIDTH 480 0
DWIDTH 8 0
BBX 8 8 0 0
BITMAP
7E
42
42
42
42
42
42
42
ENDCHAR
STARTCHAR afii10097
ENCODING 209
SWIDTH 480 0
DWIDTH 8 0
BBX 8 8 0 0
BITMAP
3E
42
42
42
3E
12
22
42
ENDCHAR
STARTCHAR afii10082
ENCODING 210
SWIDTH 480 0
DWIDTH 8 0
BBX 8 10 0 -2
BITMAP
7C
42
42
42
42
42
7C
40
40
40
ENDCHAR
STARTCHAR afii10083
ENCODING 211
SWIDTH 480 0
DWIDTH 8 0
BBX 8 8 0 0
BITMAP
3C
42
40
40
40
40
42
3C
ENDCHAR
STARTCHAR afii10084
ENCODING 212
SWIDTH 480 0
DWIDTH 8 0
BBX 8 8 0 0
BITMAP
7F
08
08
08
08
08
08
08
ENDCHAR
STARTCHAR afii10085
ENCODING 213
SWIDTH 480 0
DWIDTH 8 0
BBX 8 10 0 -2
BITMAP
42
42
24
24
18
18
10
10
20
60
ENDCHAR
STARTCHAR afii10072
ENCODING 214
SWIDTH 480 0
DWIDTH 8 0
BBX 8 8 0 0
BITMAP
49
49
2A
1C
1C
2A
49
49
ENDCHAR
STARTCHAR afii10067
ENCODING 215
SWIDTH 480 0
DWIDTH 8 0
BBX 8 8 0 0
BITMAP
7C
42
42
7C
42
42
42
7C
ENDCHAR
STARTCHAR afii10094
ENCODING 216
SWIDTH 480 0
DWIDTH 8 0
BBX 8 8 0 0
BITMAP
40
40
40
7C
42
42
42
7C
ENDCHAR
STARTCHAR afii10093
ENCODING 217
SWIDTH 480 0
DWIDTH 8 0
BBX 8 8 0 0
BITMAP
42
42
42
72
4A
4A
4A
72
ENDCHAR
STARTCHAR afii10073
ENCODING 218
SWIDTH 480 0
DWIDTH 8 0
BBX 8 8 0 0
BITMAP
3C
42
02
3C
04
02
42
3C
ENDCHAR
STARTCHAR afii10090
ENCODING 219
SWIDTH 480 0
DWIDTH 8 0
BBX 8 8 0 0
BITMAP
49
49
49
49
49
49
49
7F
ENDCHAR
STARTCHAR afii10095
ENCODING 220
SWIDTH 480 0
DWIDTH 8 0
BBX 8 8 0 0
BITMAP
38
44
02
3E
02
02
44
38
ENDCHAR
STARTCHAR afii10091
ENCODING 221
SWIDTH 480 0
DWIDTH 8 0
BBX 8 10 0 -2
BITMAP
92
92
92
92
92
92
92
FF
01
02
ENDCHAR
STARTCHAR afii10089
ENCODING 222
SWIDTH 480 0
DWIDTH 8 0
BBX 8 8 0 0
BITMAP
42
42
42
42
3E
02
02
02
ENDCHAR
STARTCHAR afii10092
ENCODING 223
SWIDTH 480 0
DWIDTH 8 0
BBX 8 8 0 0
BITMAP
70
10
10
1E
11
11
11
1E
ENDCHAR
STARTCHAR afii10048
ENCODING 224
SWIDTH 480 0
DWIDTH 8 0
BBX 8 10 0 0
BITMAP
4C
52
52
52
72
52
52
52
52
4C
ENDCHAR
STARTCHAR afii10017
ENCODING 225
SWIDTH 480 0
DWIDTH 8 0
BBX 8 10 0 0
BITMAP
18
24
24
42
42
42
7E
42
42
42
ENDCHAR
STARTCHAR afii10018
ENCODING 226
SWIDTH 480 0
DWIDTH 8 0
BBX 8 10 0 0
BITMAP
7C
40
40
40
7C
42
42
42
42
7C
ENDCHAR
STARTCHAR afii10040
ENCODING 227
SWIDTH 480 0
DWIDTH 8 0
BBX 8 12 0 -2
BITMAP
42
42
42
42
42
42
42
42
42
7F
01
02
ENDCHAR
STARTCHAR afii10021
ENCODING 228
SWIDTH 480 0
DWIDTH 8 0
BBX 8 12 0 -2
BITMAP
1E
22
22
42
42
42
42
42
42
FF
81
81
ENDCHAR
STARTCHAR afii10022
ENCODING 229
SWIDTH 480 0
DWIDTH 8 0
BBX 8 10 0 0
BITMAP
7E
40
40
40
7C
40
40
40
40
7E
ENDCHAR
STARTCHAR afii10038
ENCODING 230
SWIDTH 480 0
DWIDTH 8 0
BBX 8 11 0 0
BITMAP
08
3E
49
49
49
49
49
3E
08
08
08
ENDCHAR
STARTCHAR afii10020
ENCODING 231
SWIDTH 480 0
DWIDTH 8 0
BBX 8 10 0 0
BITMAP
7E
40
40
40
40
40
40
40
40
40
ENDCHAR
STARTCHAR afii10039
ENCODING 232
SWIDTH 480 0
DWIDTH 8 0
BBX 8 10 0 0
BITMAP
42
42
24
24
18
18
24
24
42
42
ENDCHAR
STARTCHAR afii10026
ENCODING 233
SWIDTH 480 0
DWIDTH 8 0
BBX 8 10 0 0
BITMAP
42
46
46
4A
4A
52
52
62
62
42
ENDCHAR
STARTCHAR afii10027
ENCODING 234
SWIDTH 480 0
DWIDTH 8 0
BBX 8 13 0 0
BITMAP
24
18
00
42
46
46
4A
4A
52
52
62
62
42
ENDCHAR
STARTCHAR afii10028
ENCODING 235
SWIDTH 480 0
DWIDTH 8 0
BBX 8 10 0 0
BITMAP
42
44
48
50
60
60
50
48
44
42
ENDCHAR
STARTCHAR afii10029
ENCODING 236
SWIDTH 480 0
DWIDTH 8 0
BBX 8 10 0 0
BITMAP
1E
22
22
22
22
22
22
22
22
42
ENDCHAR
STARTCHAR afii10030
ENCODING 237
SWIDTH 480 0
DWIDTH 8 0
BBX 8 10 0 0
BITMAP
42
42
66
66
5A
5A
42
42
42
42
ENDCHAR
STARTCHAR afii10031
ENCODING 238
SWIDTH 480 0
DWIDTH 8 0
BBX 8 10 0 0
BITMAP
42
42
42
42
7E
42
42
42
42
42
ENDCHAR
STARTCHAR afii10032
ENCODING 239
SWIDTH 480 0
DWIDTH 8 0
BBX 8 10 0 0
BITMAP
3C
42
42
42
42
42
42
42
42
3C
ENDCHAR
STARTCHAR afii10033
ENCODING 240
SWIDTH 480 0
DWIDTH 8 0
BBX 8 10 0 0
BITMAP
7E
42
42
42
42
42
42
42
42
42
ENDCHAR
STARTCHAR afii10049
ENCODING 241
SWIDTH 480 0
DWIDTH 8 0
BBX 8 10 0 0
BITMAP
3E
42
42
42
3E
12
22
22
42
42
ENDCHAR
STARTCHAR afii10034
ENCODING 242
SWIDTH 480 0
DWIDTH 8 0
BBX 8 10 0 0
BITMAP
7C
42
42
42
7C
40
40
40
40
40
ENDCHAR
STARTCHAR afii10035
ENCODING 243
SWIDTH 480 0
DWIDTH 8 0
BBX 8 10 0 0
BITMAP
3C
42
42
40
40
40
40
42
42
3C
ENDCHAR
STARTCHAR afii10036
ENCODING 244
SWIDTH 480 0
DWIDTH 8 0
BBX 8 10 0 0
BITMAP
7F
08
08
08
08
08
08
08
08
08
ENDCHAR
STARTCHAR afii10037
ENCODING 245
SWIDTH 480 0
DWIDTH 8 0
BBX 8 10 0 0
BITMAP
41
41
22
22
14
14
08
08
10
30
ENDCHAR
STARTCHAR afii10024
ENCODING 246
SWIDTH 480 0
DWIDTH 8 0
BBX 8 10 0 0
BITMAP
49
49
2A
2A
1C
1C
2A
2A
49
49
ENDCHAR
STARTCHAR afii10019
ENCODING 247
SWIDTH 480 0
DWIDTH 8 0
BBX 8 10 0 0
BITMAP
7C
42
42
42
7C
42
42
42
42
7C
ENDCHAR
STARTCHAR afii10046
ENCODING 248
SWIDTH 480 0
DWIDTH 8 0
BBX 8 10 0 0
BITMAP
40
40
40
40
7C
42
42
42
42
7C
ENDCHAR
STARTCHAR afii10045
ENCODING 249
SWIDTH 480 0
DWIDTH 8 0
BBX 8 10 0 0
BITMAP
42
42
42
42
72
4A
4A
4A
4A
72
ENDCHAR
STARTCHAR afii10025
ENCODING 250
SWIDTH 480 0
DWIDTH 8 0
BBX 8 10 0 0
BITMAP
3C
42
02
02
3C
04
02
02
42
3C
ENDCHAR
STARTCHAR afii10042
ENCODING 251
SWIDTH 480 0
DWIDTH 8 0
BBX 8 10 0 0
BITMAP
49
49
49
49
49
49
49
49
49
7F
ENDCHAR
STARTCHAR afii10047
ENCODING 252
SWIDTH 480 0
DWIDTH 8 0
BBX 8 10 0 0
BITMAP
38
44
02
02
3E
02
02
02
44
38
ENDCHAR
STARTCHAR afii10043
ENCODING 253
SWIDTH 480 0
DWIDTH 8 0
BBX 8 12 0 -2
BITMAP
92
92
92
92
92
92
92
92
92
FF
01
02
ENDCHAR
STARTCHAR afii10041
ENCODING 254
SWIDTH 480 0
DWIDTH 8 0
BBX 8 10 0 0
BITMAP
42
42
42
42
42
3E
02
02
02
02
ENDCHAR
STARTCHAR afii10044
ENCODING 255
SWIDTH 480 0
DWIDTH 8 0
BBX 8 10 0 0
BITMAP
70
10
10
10
1E
11
11
11
11
1E
ENDCHAR
ENDFONT
